<svg width="22" height="22" viewBox="0 0 22 22" fill="none" xmlns="http://www.w3.org/2000/svg">
<g clip-path="url(#clip0_25_143)">
<path d="M11 0C6.6067 0 3.03247 3.44658 3.03247 7.68297C3.03247 12.9405 10.1627 20.6588 10.4662 20.9848C10.7514 21.291 11.2492 21.2905 11.5338 20.9848C11.8374 20.6588 18.9676 12.9405 18.9676 7.68297C18.9675 3.44658 15.3933 0 11 0ZM11 19.4628C8.60036 16.7142 4.46728 11.2913 4.46728 7.68305C4.46728 4.20946 7.39784 1.38357 11 1.38357C14.6022 1.38357 17.5328 4.20946 17.5328 7.68301C17.5327 11.2914 13.4003 16.7133 11 19.4628Z" fill="#C5281C"/>
<path d="M11 3.81738C8.78958 3.81738 6.99133 5.55144 6.99133 7.6829C6.99133 9.81435 8.78962 11.5484 11 11.5484C13.2103 11.5484 15.0086 9.81435 15.0086 7.6829C15.0086 5.55144 13.2103 3.81738 11 3.81738ZM11 10.1648C9.58072 10.1648 8.42615 9.05147 8.42615 7.6829C8.42615 6.31433 9.58076 5.20095 11 5.20095C12.4192 5.20095 13.5738 6.31433 13.5738 7.6829C13.5738 9.05147 12.4192 10.1648 11 10.1648Z" fill="#C5281C"/>
</g>
<defs>
<clipPath id="clip0_25_143">
<rect width="22" height="21.2143" fill="white"/>
</clipPath>
</defs>
</svg>
