<svg width="16" height="14" viewBox="0 0 16 14" fill="none" xmlns="http://www.w3.org/2000/svg">
<path d="M3.93928 0.44294L11.6849 0.44408C12.6973 0.456346 13.2255 0.569212 13.7734 0.861828C14.3045 1.14548 14.7251 1.56557 15.0091 2.09596C15.3204 2.6773 15.4286 3.23648 15.4286 4.3771V9.34921C15.4286 10.4898 15.3204 11.049 15.0091 11.6303C14.7251 12.1607 14.3045 12.5808 13.7734 12.8645C13.1913 13.1754 12.6314 13.2834 11.4893 13.2834H3.93928C2.79718 13.2834 2.23727 13.1754 1.65517 12.8645C1.12409 12.5808 0.703457 12.1607 0.419434 11.6303C0.108124 11.049 0 10.4898 0 9.34921L0.0011417 4.18173C0.0134235 3.17062 0.126437 2.6431 0.419434 2.09596C0.703457 1.56557 1.12409 1.14548 1.65517 0.861828C2.23727 0.550923 2.79718 0.44294 3.93928 0.44294ZM13.9418 2.83641L9.53256 7.23924C8.56183 8.20871 7.00807 8.24102 5.99847 7.33619L5.89601 7.23924L1.48682 2.83641C1.33933 3.1669 1.28571 3.54493 1.28571 4.3771V9.34921C1.28571 10.296 1.35512 10.6549 1.55319 11.0248C1.71739 11.3314 1.95449 11.5682 2.26151 11.7322C2.58831 11.9067 2.90656 11.9812 3.62816 11.9963L3.93928 11.9993H11.4893C12.4373 11.9993 12.7967 11.93 13.1671 11.7322C13.4741 11.5682 13.7112 11.3314 13.8754 11.0248C14.0502 10.6984 14.1247 10.3806 14.1399 9.65993L14.1429 9.34921V4.3771C14.1429 3.54493 14.0892 3.1669 13.9418 2.83641ZM11.4893 1.72698H3.93928C3.10603 1.72698 2.72751 1.78053 2.39658 1.92782L6.80515 6.33128C7.28082 6.80634 8.03649 6.83135 8.54164 6.40629L8.62342 6.33128L13.032 1.92782C12.7011 1.78053 12.3225 1.72698 11.4893 1.72698Z" fill="white"/>
</svg>
