<svg width="59" height="59" viewBox="0 0 59 59" fill="none" xmlns="http://www.w3.org/2000/svg">
<path d="M54.0834 24.5834V31.9584C54.0834 41.7918 49.1668 46.7084 39.3334 46.7084H38.1043C37.3422 46.7084 36.6047 47.0772 36.1376 47.6917L32.4501 52.6084C30.8276 54.7718 28.1726 54.7718 26.5501 52.6084L22.8626 47.6917C22.4692 47.1509 21.5597 46.7084 20.8959 46.7084H19.6667C9.83342 46.7084 4.91675 44.2501 4.91675 31.9584V19.6667C4.91675 9.83342 9.83342 4.91675 19.6667 4.91675H34.4167" stroke="#3F3F3F" stroke-width="1.5" stroke-miterlimit="10" stroke-linecap="round" stroke-linejoin="round"/>
<path d="M47.9376 17.2084C51.3318 17.2084 54.0834 14.4568 54.0834 11.0626C54.0834 7.66833 51.3318 4.91675 47.9376 4.91675C44.5433 4.91675 41.7917 7.66833 41.7917 11.0626C41.7917 14.4568 44.5433 17.2084 47.9376 17.2084Z" stroke="#3F3F3F" stroke-width="1.5" stroke-linecap="round" stroke-linejoin="round"/>
<path d="M39.3246 27.0417H39.3466" stroke="#3F3F3F" stroke-width="2" stroke-linecap="round" stroke-linejoin="round"/>
<path d="M29.4889 27.0417H29.5109" stroke="#3F3F3F" stroke-width="2" stroke-linecap="round" stroke-linejoin="round"/>
<path d="M19.6532 27.0417H19.6752" stroke="#3F3F3F" stroke-width="2" stroke-linecap="round" stroke-linejoin="round"/>
</svg>
