<svg width="20" height="20" viewBox="0 0 20 20" fill="none" xmlns="http://www.w3.org/2000/svg">
<g clip-path="url(#clip0_25_122)">
<path d="M15.8064 12.3897C15.397 11.9633 14.9031 11.7354 14.3797 11.7354C13.8605 11.7354 13.3624 11.9591 12.936 12.3855L11.6022 13.7151C11.4924 13.656 11.3827 13.6011 11.2771 13.5463C11.1252 13.4703 10.9816 13.3985 10.8592 13.3225C9.60978 12.529 8.47429 11.4948 7.38524 10.1567C6.8576 9.48975 6.50302 8.92834 6.24553 8.35849C6.59166 8.0419 6.91247 7.71265 7.22483 7.39607C7.34303 7.27787 7.46122 7.15546 7.57941 7.03727C8.46585 6.15083 8.46585 5.00268 7.57941 4.11624L6.42704 2.96387C6.29618 2.83302 6.16111 2.69794 6.03447 2.56287C5.78121 2.30115 5.51527 2.031 5.2409 1.77773C4.83145 1.3725 4.3418 1.15723 3.82682 1.15723C3.31184 1.15723 2.81375 1.3725 2.39163 1.77773C2.38741 1.78195 2.38741 1.78195 2.38319 1.78618L0.948004 3.23403C0.407699 3.77433 0.099556 4.43283 0.0320178 5.19686C-0.0692895 6.42943 0.293728 7.57758 0.572323 8.32894C1.25615 10.1736 2.27766 11.8831 3.80149 13.7151C5.65035 15.9228 7.87489 17.6661 10.416 18.8944C11.3869 19.3545 12.6828 19.8991 14.1306 19.9919C14.2193 19.9962 14.3121 20.0004 14.3965 20.0004C15.3716 20.0004 16.1905 19.65 16.8321 18.9535C16.8364 18.9451 16.8448 18.9409 16.849 18.9324C17.0685 18.6665 17.3218 18.4259 17.5877 18.1684C17.7692 17.9953 17.955 17.8138 18.1365 17.6239C18.5544 17.1891 18.7739 16.6826 18.7739 16.1634C18.7739 15.6399 18.5501 15.1376 18.1238 14.7155L15.8064 12.3897ZM17.3176 16.8345C17.3134 16.8345 17.3134 16.8388 17.3176 16.8345C17.1529 17.0118 16.9841 17.1722 16.8026 17.3495C16.5282 17.6112 16.2496 17.8856 15.9879 18.1937C15.5616 18.6496 15.0593 18.8649 14.4008 18.8649C14.3375 18.8649 14.2699 18.8649 14.2066 18.8607C12.9529 18.7805 11.7879 18.2908 10.9141 17.8729C8.52494 16.7163 6.42704 15.0743 4.68371 12.9933C3.2443 11.2584 2.28188 9.65438 1.64449 7.93215C1.25193 6.88109 1.10841 6.06219 1.17172 5.28972C1.21394 4.79585 1.40389 4.3864 1.75424 4.03604L3.19365 2.59663C3.40048 2.40246 3.61998 2.29693 3.83526 2.29693C4.10119 2.29693 4.31647 2.45734 4.45155 2.59241C4.45577 2.59663 4.45999 2.60086 4.46421 2.60508C4.7217 2.84568 4.96653 3.09473 5.22402 3.36066C5.35487 3.49574 5.48995 3.63081 5.62502 3.77011L6.77739 4.92248C7.22483 5.36992 7.22483 5.78359 6.77739 6.23103C6.65498 6.35345 6.53679 6.47586 6.41438 6.59405C6.0598 6.95707 5.72211 7.29476 5.35487 7.62401C5.34643 7.63245 5.33799 7.63667 5.33377 7.64511C4.97075 8.00813 5.03829 8.36271 5.11427 8.60331C5.11849 8.61598 5.12271 8.62864 5.12693 8.6413C5.42663 9.36734 5.84874 10.0512 6.49036 10.8658L6.49458 10.8701C7.65961 12.3053 8.88796 13.4239 10.2429 14.2807C10.416 14.3905 10.5933 14.4791 10.7621 14.5636C10.9141 14.6395 11.0576 14.7113 11.18 14.7873C11.1969 14.7957 11.2138 14.8084 11.2307 14.8168C11.3742 14.8886 11.5093 14.9224 11.6486 14.9224C11.9989 14.9224 12.2184 14.7029 12.2902 14.6311L13.7338 13.1875C13.8773 13.0439 14.1053 12.8709 14.3712 12.8709C14.6329 12.8709 14.8482 13.0355 14.9791 13.179C14.9833 13.1832 14.9833 13.1832 14.9875 13.1875L17.3134 15.5133C17.7481 15.9439 17.7481 16.3871 17.3176 16.8345Z" fill="#C5281C"/>
<path d="M10.8085 4.7574C11.9145 4.94313 12.9191 5.46656 13.7211 6.26857C14.5231 7.07059 15.0423 8.07522 15.2323 9.18116C15.2787 9.45975 15.5193 9.65392 15.7937 9.65392C15.8275 9.65392 15.857 9.6497 15.8908 9.64548C16.2031 9.59483 16.41 9.29935 16.3593 8.98698C16.1314 7.64888 15.4982 6.42897 14.5316 5.46233C13.5649 4.49569 12.345 3.86252 11.0069 3.63458C10.6946 3.58393 10.4033 3.79076 10.3484 4.09891C10.2936 4.40705 10.4962 4.70675 10.8085 4.7574Z" fill="#C5281C"/>
<path d="M19.9769 8.82242C19.6012 6.61899 18.5628 4.61395 16.9672 3.01836C15.3716 1.42277 13.3666 0.384369 11.1631 0.00868772C10.855 -0.0461871 10.5637 0.16487 10.5088 0.473013C10.4582 0.785377 10.665 1.07664 10.9774 1.13151C12.9444 1.46498 14.7384 2.39785 16.1652 3.82037C17.5919 5.24712 18.5206 7.0411 18.854 9.00815C18.9005 9.28675 19.1411 9.48092 19.4154 9.48092C19.4492 9.48092 19.4788 9.4767 19.5125 9.47248C19.8207 9.42604 20.0317 9.13056 19.9769 8.82242Z" fill="#C5281C"/>
</g>
<defs>
<clipPath id="clip0_25_122">
<rect width="20" height="20" fill="white"/>
</clipPath>
</defs>
</svg>
