<svg width="15" height="15" viewBox="0 0 15 15" fill="none" xmlns="http://www.w3.org/2000/svg">
<path d="M8.43404 9.95576L7.96215 10.4271C7.83609 10.5531 7.64821 10.5946 7.48071 10.5333C7.01137 10.3609 6.42421 9.92332 5.71925 9.21921C5.01491 8.51574 4.57614 7.9293 4.4042 7.45989C4.34268 7.29272 4.38393 7.10509 4.50991 6.97904L4.98244 6.50773C5.85298 5.63825 5.93258 4.26883 5.16521 3.35991L4.61117 2.70223C3.9788 1.95106 2.83951 1.87537 2.06577 2.53241C1.778 2.78009 1.56167 3.10001 1.43913 3.45914C1.38616 3.61546 1.35196 3.77752 1.33723 3.9419C1.05385 6.04277 2.06831 8.24796 4.38 10.5568C6.69168 12.8657 8.89892 13.8783 11.003 13.5952C11.5496 13.5431 12.0551 13.2825 12.4142 12.8676C13.0727 12.0954 12.9963 10.9569 12.2448 10.3253L11.5863 9.7713C10.675 9.00613 9.30459 9.08628 8.43404 9.95576ZM6.62842 8.31129C6.96516 8.64762 7.25882 8.90271 7.49621 9.07646C8.86117 7.71317 10.9851 7.58891 12.4147 8.78928L13.0727 9.34288C14.3772 10.4393 14.5077 12.3931 13.3869 13.7073C12.8114 14.3723 12.0013 14.79 11.1746 14.8678C8.61472 15.2122 6.04032 14.0311 3.47082 11.4647C0.901262 8.89832 -0.281757 6.32652 0.056636 3.82747C0.0804255 3.56193 0.135679 3.30014 0.222144 3.04493C0.418537 2.4694 0.765231 1.95668 1.23292 1.55418C2.54259 0.442048 4.49787 0.572331 5.595 1.87559L6.14814 2.5322C7.35166 3.9577 7.22836 6.08052 5.891 7.41626C6.03624 7.68167 6.29155 7.97483 6.62842 8.31129Z" fill="white"/>
</svg>
