<svg width="71" height="71" viewBox="0 0 71 71" fill="none" xmlns="http://www.w3.org/2000/svg">
<path d="M65.0831 34.4647H47.9247C43.3985 34.4647 40.2922 31.033 40.2922 26.8321V17.3062C40.2922 13.1054 43.3985 9.67383 47.9247 9.67383H57.4506C61.6514 9.67383 65.0831 13.1054 65.0831 17.3062V34.4647Z" stroke="#292D32" stroke-width="1.5" stroke-linecap="round" stroke-linejoin="round"/>
<path d="M65.0831 34.4644C65.0831 52.3623 61.7402 55.3204 51.6819 61.2963" stroke="#292D32" stroke-width="1.5" stroke-linecap="round" stroke-linejoin="round"/>
<path d="M30.6778 34.4647H13.5195C8.99321 34.4647 5.88696 31.033 5.88696 26.8321V17.3062C5.88696 13.1054 8.99321 9.67383 13.5195 9.67383H23.0749C27.2757 9.67383 30.7074 13.1054 30.7074 17.3062V34.4647" stroke="#292D32" stroke-width="1.5" stroke-linecap="round" stroke-linejoin="round"/>
<path d="M30.6781 34.4644C30.6781 52.3623 27.3352 55.3204 17.2769 61.2963" stroke="#292D32" stroke-width="1.5" stroke-linecap="round" stroke-linejoin="round"/>
</svg>
