<svg width="80" height="80" viewBox="0 0 80 80" fill="none" xmlns="http://www.w3.org/2000/svg">
<path d="M48.5467 40.6527L42.5777 38.3503L39.1516 34.9244C38.9288 34.7016 38.6372 34.5872 38.3433 34.582V31.7823C39.9647 30.0597 41.1167 27.8728 41.5727 25.4072C41.5736 25.4061 41.5747 25.4048 41.5758 25.4039C41.8742 25.4216 42.1755 25.3997 42.4733 25.3387C44.0836 25.0091 45.2525 23.5141 45.2525 21.7839V20.8866C45.2525 19.8723 44.8357 18.9428 44.1594 18.2845C45.2583 12.3672 44.3711 7.5475 41.5825 4.32734C38.8941 1.22281 34.5597 -0.260001 29.0475 0.0373423C23.9138 0.314842 20.6166 2.6925 19.6049 3.53078C18.1811 3.71578 14.1207 4.74187 14.1207 10.4197C14.1207 13.5636 14.6314 16.1783 14.9902 17.6277C13.7819 18.1925 12.9692 19.4536 12.9692 20.8998V21.7837C12.9692 23.5139 14.138 25.0089 15.7486 25.3386C16.0461 25.3995 16.3478 25.4214 16.646 25.4037C16.6471 25.4048 16.6482 25.4061 16.6491 25.4072C17.105 27.8727 18.2571 30.0595 19.8785 31.7822V34.5819C19.5846 34.587 19.293 34.7014 19.0702 34.9242L15.6442 38.3502L8.93034 40.9398C5.70159 42.1852 3.6255 45.345 3.76394 48.8028L4.71753 72.612C4.74285 73.2428 5.26206 73.737 5.88769 73.737C5.90363 73.737 5.91956 73.7367 5.9355 73.7361C6.58222 73.7102 7.08534 73.165 7.05956 72.5183L6.10597 48.7094C6.08066 48.0766 6.1605 47.458 6.33128 46.8728L10.1378 50.6794C11.2214 51.763 11.8182 53.2038 11.8182 54.7361V72.5655C11.8182 73.2127 12.3428 73.7373 12.99 73.7373C13.6372 73.7373 14.1619 73.2127 14.1619 72.5655V54.7361C14.1619 52.5777 13.3214 50.5483 11.795 49.022L7.49988 44.7269C8.10175 44.0308 8.87441 43.4739 9.77394 43.1269L16.0382 40.7106L20.8203 47.8838C21.4 48.7534 22.3291 49.3113 23.3692 49.4142C23.485 49.4256 23.6005 49.4312 23.7155 49.4312C24.3547 49.4312 24.9735 49.2523 25.5132 48.9239L24.4861 72.5144C24.458 73.1609 24.9592 73.708 25.606 73.7361C25.6233 73.7369 25.6407 73.7372 25.6578 73.7372C26.2816 73.7372 26.8003 73.2456 26.8277 72.6162L27.78 50.743H30.443L31.3953 72.6162C31.4227 73.2455 31.9414 73.7372 32.5652 73.7372C32.5824 73.7372 32.5997 73.7369 32.6171 73.7361C33.2636 73.708 33.765 73.1609 33.7369 72.5144L32.7099 48.9239C33.2496 49.2523 33.8682 49.4312 34.5074 49.4312C34.6222 49.4312 34.7378 49.4256 34.8535 49.4142C35.8927 49.3116 36.8217 48.7536 37.4016 47.8839L42.1838 40.7108L47.703 42.8397C47.8417 42.8931 47.9842 42.9184 48.1246 42.9184C48.5949 42.9184 49.0388 42.6331 49.2182 42.168C49.4513 41.5641 49.1505 40.8858 48.5467 40.6527ZM18.9513 24.9683C18.7394 23.8156 17.6713 22.9795 16.5211 23.0633C16.4224 23.0703 16.3205 23.0634 16.2185 23.0427C15.7022 22.937 15.313 22.3958 15.313 21.7839V20.9C15.313 20.3012 15.716 19.7616 16.2303 19.6712C16.6633 19.5953 17.0778 19.7544 17.3407 20.097C17.5589 20.3816 17.8499 20.585 18.1828 20.6856C18.6692 20.8323 19.2061 20.7462 19.6188 20.4548C20.5713 19.7825 21.3786 18.9297 22.0182 17.9203C22.3646 17.3736 22.2022 16.6495 21.6557 16.3031C21.1086 15.9564 20.3849 16.1191 20.0385 16.6656C19.6738 17.2411 19.2375 17.7467 18.7371 18.1744C18.3383 17.8231 17.8671 17.5717 17.3608 17.4331C17.0469 16.2511 16.4644 13.6259 16.4644 10.4195C16.4644 8.51094 17.056 7.16875 18.2228 6.43078C19.1311 5.85609 20.0902 5.83406 20.0905 5.83391C20.3902 5.83391 20.6817 5.71594 20.8994 5.51C20.9294 5.48141 23.9685 2.6589 29.1739 2.37766C33.9361 2.11969 37.6141 3.325 39.8105 5.86141C42.0355 8.43094 42.7688 12.3789 41.9499 17.3181C41.5977 17.3017 41.2072 17.3273 40.8189 17.3955L39.6446 14.575C39.4197 14.035 38.8308 13.7436 38.2652 13.892C38.1508 13.922 26.761 16.8281 21.9585 10.8495C21.5533 10.345 20.8157 10.2644 20.311 10.6698C19.8064 11.0752 19.7258 11.8127 20.1313 12.3173C25.0027 18.3822 34.7036 17.0225 37.8594 16.3853L38.7722 18.5775C39.1455 19.4737 40.1002 19.9633 41.0419 19.7414C41.4111 19.6544 41.8128 19.6386 41.9882 19.6734C42.5128 19.7778 42.9085 20.2992 42.9085 20.8864V21.7837C42.9085 22.3958 42.5191 22.9369 42.0032 23.0425C41.9008 23.0634 41.7992 23.0703 41.7003 23.0631C40.5507 22.9791 39.4819 23.8155 39.2703 24.9683C38.3697 29.8711 34.0971 33.4295 29.1108 33.4295C24.1244 33.4295 19.8517 29.8711 18.9513 24.9683ZM24.5111 46.7562C24.2703 46.9969 23.938 47.1158 23.5996 47.082C23.261 47.0486 22.9586 46.867 22.7699 46.5839L17.9521 39.357L19.9521 37.357L27.3964 43.8708L24.5111 46.7562ZM27.8813 48.3994L27.9586 46.6231L29.1107 45.4709L30.2628 46.6231L30.3402 48.3994H27.8813ZM29.1107 42.2566L22.2219 36.2289V33.7372C24.2175 35.0303 26.5892 35.7734 29.1107 35.7734C31.6321 35.7734 34.0038 35.0303 35.9992 33.7372V36.2289L29.1107 42.2566ZM35.4517 46.5837C35.2628 46.867 34.9605 47.0486 34.6219 47.082C34.4228 47.1022 34.04 47.0855 33.7107 46.7562L30.8253 43.8708L38.2696 37.357L40.2696 39.357L35.4517 46.5837Z" fill="black"/>
<path d="M76.2425 55.0303C76.2425 52.3121 74.0313 50.1009 71.3132 50.1009H63.7174V47.5153C63.7174 45.4878 62.0678 43.8384 60.0405 43.8384H52.5252C50.4977 43.8384 48.8483 45.4879 48.8483 47.5153V50.1009H41.2525C38.5344 50.1009 36.3232 52.3121 36.3232 55.0303V58.5095C36.3232 59.7921 36.755 61.0239 37.5757 62.1629V75.1979C37.5757 77.8457 39.7299 79.9999 42.3777 79.9999H70.1882C72.836 79.9999 74.9902 77.8457 74.9902 75.1979V62.1629C75.8108 61.0237 76.2427 59.792 76.2427 58.5093L76.2425 55.0303ZM51.1919 47.5151C51.1921 46.7799 51.7902 46.182 52.5252 46.182H60.0403C60.7755 46.182 61.3735 46.7801 61.3735 47.5151V50.1007H51.1919V47.5151ZM73.8986 58.5096C73.8986 60.5212 71.9952 62.516 68.7272 64.0062V63.7981C68.7272 63.1509 68.2025 62.6262 67.5553 62.6262H62.5453C61.8982 62.6262 61.3735 63.1509 61.3735 63.7981V67.5556C61.3735 69.5831 63.023 71.2324 65.0503 71.2324C67.0777 71.2324 68.7272 69.5829 68.7272 67.5556V66.5534C70.2488 65.9446 71.5624 65.2362 72.6461 64.4492V75.1981C72.6463 76.5535 71.5436 77.6562 70.188 77.6562H42.3777C41.0222 77.6562 39.9194 76.5534 39.9194 75.1979V64.449C41.0032 65.236 42.3166 65.9445 43.8383 66.5534V67.5556C43.8383 69.5831 45.4878 71.2324 47.5152 71.2324C49.2566 71.2324 50.7182 70.0151 51.0961 68.387C52.7788 68.6118 54.5172 68.7274 56.2828 68.7274C56.711 68.7274 57.1449 68.7206 57.5724 68.707C58.2192 68.6865 58.7271 68.1454 58.7064 67.4985C58.686 66.8517 58.1496 66.3421 57.498 66.3645C57.095 66.3773 56.6863 66.3837 56.2827 66.3837C54.5453 66.3837 52.838 66.2654 51.1919 66.0349V63.7981C51.1919 63.1509 50.6672 62.6262 50.02 62.6262H45.01C44.3628 62.6262 43.8382 63.1509 43.8382 63.7981V64.0062C40.5702 62.516 38.6667 60.521 38.6667 58.5096V55.0304C38.6667 53.6046 39.8266 52.4448 41.2524 52.4448H71.313C72.7388 52.4448 73.8986 53.6046 73.8986 55.0304V58.5096ZM66.3838 64.9698V67.5554C66.3838 68.2906 65.7857 68.8885 65.0507 68.8885C64.3157 68.8885 63.7175 68.2904 63.7175 67.5554V64.9698H66.3838ZM46.1819 67.5554V64.9698H48.8482V67.5554C48.8482 68.2906 48.25 68.8885 47.515 68.8885C46.78 68.8885 46.1819 68.2906 46.1819 67.5554Z" fill="#C5281C"/>
</svg>
