<svg width="80" height="80" viewBox="0 0 80 80" fill="none" xmlns="http://www.w3.org/2000/svg">
<path d="M33.7502 42.5H32.5002V40.9825C34.7553 39.8317 36.6489 38.0805 37.9723 35.9221C39.2957 33.7637 39.9974 31.2818 40.0002 28.75V27.5C40.9947 27.5 41.9486 27.1049 42.6518 26.4017C43.3551 25.6984 43.7502 24.7446 43.7502 23.75C43.7502 22.7554 43.3551 21.8016 42.6518 21.0983C41.9486 20.3951 40.9947 20 40.0002 20V16.25C40.0002 12.6033 38.5515 9.10591 35.9729 6.52728C33.3943 3.94866 29.8969 2.5 26.2502 2.5C22.6034 2.5 19.1061 3.94866 16.5275 6.52728C13.9488 9.10591 12.5002 12.6033 12.5002 16.25V20C11.5056 20 10.5518 20.3951 9.84852 21.0983C9.14526 21.8016 8.75018 22.7554 8.75018 23.75C8.75018 24.7446 9.14526 25.6984 9.84852 26.4017C10.5518 27.1049 11.5056 27.5 12.5002 27.5V28.75C12.5029 31.2818 13.2047 33.7637 14.528 35.9221C15.8514 38.0805 17.745 39.8317 20.0002 40.9825V42.5H18.7502C16.2259 42.5013 13.7366 43.0897 11.4789 44.2188C9.22821 45.3525 7.26818 46.9883 5.75018 49C3.63241 51.8085 2.49108 55.2325 2.50018 58.75V76.25C2.50018 76.5815 2.63187 76.8995 2.86629 77.1339C3.10071 77.3683 3.41866 77.5 3.75018 77.5H48.7502C49.0817 77.5 49.3996 77.3683 49.6341 77.1339C49.8685 76.8995 50.0002 76.5815 50.0002 76.25V58.75C50.0093 55.2325 48.8679 51.8085 46.7502 49C45.2315 46.9872 43.2677 45.353 41.0125 44.2254C38.7572 43.0978 36.2716 42.5072 33.7502 42.5V42.5ZM32.9739 45L33.5202 47.73L29.0752 48.47L31.8514 45H32.9739ZM25.5177 53.75L24.2677 52.5L25.5177 51.25H26.9827L28.2327 52.5L26.9827 53.75H25.5177ZM41.2502 23.75C41.2502 24.0815 41.1185 24.3995 40.8841 24.6339C40.6496 24.8683 40.3317 25 40.0002 25V22.5C40.3317 22.5 40.6496 22.6317 40.8841 22.8661C41.1185 23.1005 41.2502 23.4185 41.2502 23.75ZM26.2502 5C29.2328 5.00331 32.0924 6.18964 34.2015 8.2987C36.3105 10.4078 37.4969 13.2673 37.5002 16.25V19.5062C35.8003 18.8349 34.4311 17.5241 33.6864 15.855C33.6035 15.606 33.4443 15.3894 33.2314 15.2359C33.0184 15.0825 32.7626 14.9999 32.5002 15C31.7169 15.017 30.947 15.2062 30.2451 15.5542C29.5432 15.9022 28.9265 16.4005 28.4389 17.0138C27.4328 15.971 26.6652 14.7222 26.1889 13.3537C26.0891 13.0553 25.8804 12.8054 25.6044 12.6541C25.3284 12.5028 25.0055 12.4611 24.7002 12.5375C21.2389 13.4025 17.3502 16.3837 15.0039 18.4125V16.25C15.0072 13.268 16.193 10.409 18.3013 8.30003C20.4096 6.19107 23.2682 5.0043 26.2502 5ZM11.2502 23.75C11.2502 23.4185 11.3819 23.1005 11.6163 22.8661C11.8507 22.6317 12.1687 22.5 12.5002 22.5V25C12.1687 25 11.8507 24.8683 11.6163 24.6339C11.3819 24.3995 11.2502 24.0815 11.2502 23.75ZM15.0002 28.75V21.7812C16.2439 20.5987 20.5252 16.6988 24.2789 15.2813C25.0622 17.1862 26.4328 18.7915 28.1914 19.8637C28.4873 20.0084 28.8281 20.0316 29.1408 19.9284C29.4536 19.8252 29.7136 19.6037 29.8652 19.3113C30.2873 18.5477 30.9589 17.9523 31.7677 17.625C33.0449 19.8011 35.0896 21.4209 37.5002 22.1662V28.75C37.5002 31.7337 36.3149 34.5952 34.2051 36.705C32.0953 38.8147 29.2339 40 26.2502 40C23.2665 40 20.405 38.8147 18.2952 36.705C16.1854 34.5952 15.0002 31.7337 15.0002 28.75V28.75ZM26.2502 42.5C27.5188 42.4969 28.7808 42.3177 30.0002 41.9675V43.3112L26.2502 48L22.5002 43.3125V41.9675C23.7195 42.3177 24.9816 42.4969 26.2502 42.5ZM20.6489 45L23.4252 48.47L18.9802 47.73L19.5264 45H20.6489ZM5.00018 58.75C4.99281 55.7737 5.95852 52.8766 7.75017 50.5C9.03604 48.7969 10.6958 47.4117 12.6014 46.4512C13.9663 45.7671 15.437 45.3187 16.9514 45.125L16.2752 48.5C16.2424 48.6641 16.2429 48.8332 16.2767 48.9971C16.3105 49.1611 16.3769 49.3165 16.4719 49.4543C16.5669 49.5921 16.6886 49.7094 16.8298 49.7993C16.971 49.8892 17.1289 49.9498 17.2939 49.9775L22.3989 50.8287L21.6164 51.6113C21.3821 51.8457 21.2504 52.1635 21.2504 52.495C21.2504 52.8265 21.3821 53.1443 21.6164 53.3787L23.6689 55.4313L21.2652 71.0563C21.2395 71.2203 21.2472 71.3878 21.2877 71.5487L22.1489 75H13.7502V56.25H11.2502V75H5.00018V58.75ZM24.7264 75L23.7739 71.1912L26.0727 56.25H26.4277L28.7264 71.1912L27.7739 75H24.7264ZM47.5002 75H41.2502V56.25H38.7502V75H30.3514L31.2127 71.5525C31.2532 71.3915 31.2609 71.224 31.2352 71.06L28.8314 55.435L30.8839 53.3825C31.1183 53.1481 31.2499 52.8302 31.2499 52.4988C31.2499 52.1673 31.1183 51.8494 30.8839 51.615L30.1014 50.8325L35.2064 49.9813C35.3719 49.9536 35.5301 49.8929 35.6716 49.8027C35.8131 49.7126 35.935 49.595 36.03 49.4567C36.1251 49.3185 36.1914 49.1626 36.2249 48.9982C36.2584 48.8338 36.2585 48.6644 36.2252 48.5L35.5489 45.125C37.3615 45.3691 39.1079 45.9697 40.6871 46.8922C42.2664 47.8148 43.6473 49.041 44.7502 50.5C46.5415 52.8768 47.5072 55.7738 47.5002 58.75V75Z" fill="black"/>
<path d="M65 45C62.5277 45 60.111 45.7331 58.0554 47.1066C55.9998 48.4801 54.3976 50.4324 53.4515 52.7165C52.5054 55.0005 52.2579 57.5139 52.7402 59.9386C53.2225 62.3634 54.413 64.5907 56.1612 66.3388C57.9093 68.087 60.1366 69.2775 62.5614 69.7598C64.9861 70.2421 67.4995 69.9946 69.7835 69.0485C72.0676 68.1024 74.0198 66.5002 75.3934 64.4446C76.7669 62.389 77.5 59.9723 77.5 57.5C77.4964 54.1859 76.1782 51.0086 73.8348 48.6652C71.4914 46.3218 68.3141 45.0036 65 45V45ZM65 67.5C63.0222 67.5 61.0888 66.9135 59.4443 65.8147C57.7998 64.7159 56.5181 63.1541 55.7612 61.3268C55.0043 59.4996 54.8063 57.4889 55.1922 55.5491C55.578 53.6093 56.5304 51.8275 57.9289 50.4289C59.3275 49.0304 61.1093 48.078 63.0491 47.6921C64.9889 47.3063 66.9996 47.5043 68.8268 48.2612C70.6541 49.0181 72.2159 50.2998 73.3147 51.9443C74.4135 53.5888 75 55.5222 75 57.5C74.997 60.1512 73.9425 62.6931 72.0678 64.5678C70.1931 66.4425 67.6512 67.497 65 67.5Z" fill="#C5281C"/>
<path d="M57.5002 18.7498H62.5802L68.384 24.9998H66.2502V27.4998H71.2502C71.5817 27.4998 71.8997 27.3681 72.1341 27.1337C72.3685 26.8992 72.5002 26.5813 72.5002 26.2498V21.2498H70.0002V23.066L64.0415 16.6485C63.9244 16.5226 63.7826 16.4222 63.6249 16.3536C63.4673 16.285 63.2971 16.2497 63.1252 16.2498H58.0177L53.384 11.616L51.6165 13.3835L56.6165 18.3835C56.8508 18.618 57.1687 18.7497 57.5002 18.7498V18.7498Z" fill="black"/>
<path d="M75 37.5V31.25C75 30.9185 74.8683 30.6005 74.6339 30.3661C74.3995 30.1317 74.0815 30 73.75 30H68.75C68.4185 30 68.1005 30.1317 67.8661 30.3661C67.6317 30.6005 67.5 30.9185 67.5 31.25V37.5H65V26.25C65 25.9185 64.8683 25.6005 64.6339 25.3661C64.3995 25.1317 64.0815 25 63.75 25H58.75C58.4185 25 58.1005 25.1317 57.8661 25.3661C57.6317 25.6005 57.5 25.9185 57.5 26.25V37.5H55V21.25C55 20.9185 54.8683 20.6005 54.6339 20.3661C54.3995 20.1317 54.0815 20 53.75 20H48.75C48.4185 20 48.1005 20.1317 47.8661 20.3661C47.6317 20.6005 47.5 20.9185 47.5 21.25V37.5H45V40H77.5V37.5H75ZM70 32.5H72.5V37.5H70V32.5ZM60 27.5H62.5V37.5H60V27.5ZM50 22.5H52.5V37.5H50V22.5Z" fill="#C5281C"/>
<path d="M64.012 56.242C63.436 56.806 62.716 57.088 61.852 57.088C60.988 57.088 60.262 56.8 59.674 56.224C59.098 55.648 58.81 54.946 58.81 54.118C58.81 53.29 59.098 52.588 59.674 52.012C60.262 51.436 60.988 51.148 61.852 51.148C62.716 51.148 63.436 51.436 64.012 52.012C64.588 52.576 64.876 53.278 64.876 54.118C64.876 54.958 64.588 55.666 64.012 56.242ZM60.088 62.092L68.296 52.966L69.394 53.578L61.168 62.722L60.088 62.092ZM61.024 54.946C61.24 55.162 61.51 55.27 61.834 55.27C62.158 55.27 62.428 55.162 62.644 54.946C62.86 54.718 62.968 54.442 62.968 54.118C62.968 53.794 62.86 53.524 62.644 53.308C62.428 53.092 62.158 52.984 61.834 52.984C61.51 52.984 61.24 53.092 61.024 53.308C60.82 53.524 60.718 53.794 60.718 54.118C60.718 54.442 60.82 54.718 61.024 54.946ZM70.096 63.352C69.52 63.928 68.8 64.216 67.936 64.216C67.072 64.216 66.352 63.928 65.776 63.352C65.2 62.776 64.912 62.074 64.912 61.246C64.912 60.418 65.2 59.716 65.776 59.14C66.352 58.564 67.072 58.276 67.936 58.276C68.8 58.276 69.52 58.564 70.096 59.14C70.672 59.716 70.96 60.418 70.96 61.246C70.96 62.074 70.672 62.776 70.096 63.352ZM67.126 62.074C67.342 62.29 67.612 62.398 67.936 62.398C68.26 62.398 68.524 62.284 68.728 62.056C68.944 61.828 69.052 61.558 69.052 61.246C69.052 60.922 68.944 60.652 68.728 60.436C68.524 60.208 68.26 60.094 67.936 60.094C67.612 60.094 67.342 60.208 67.126 60.436C66.922 60.652 66.82 60.922 66.82 61.246C66.82 61.57 66.922 61.846 67.126 62.074Z" fill="#C5281C"/>
</svg>
