<svg width="80" height="80" viewBox="0 0 80 80" fill="none" xmlns="http://www.w3.org/2000/svg">
<g clip-path="url(#clip0_16_32)">
<path d="M66.6667 57.6478L63.2709 55.6133C62.2357 54.9942 61.0515 54.6674 59.8451 54.6667H54.7344C53.6882 54.6648 52.6465 54.7995 51.6348 55.0664L36.2364 59.1999C34.5528 59.6648 33.2006 60.9187 32.6107 62.5625L19.0664 55.2351C17.9681 54.6101 16.6823 54.3978 15.4414 54.6361C14.9733 54.7188 14.5196 54.8679 14.0931 55.0788C13.1302 55.5398 12.3314 56.2845 11.8028 57.2123C11.3405 58.0202 11.0977 58.9349 11.0977 59.8653C11.0834 61.765 12.0899 63.5254 13.7331 64.4773L38.0078 79.0014C39.0625 79.6543 40.2774 80.0001 41.5176 80.0001H60.3041C61.1433 80.0007 61.9746 79.8418 62.7546 79.5333L66.6667 77.9883V80.0001H80V53.3334H66.6667V57.6478ZM61.7748 77.0534C61.308 77.2377 60.8099 77.3327 60.308 77.3334H41.5176C40.7663 77.3327 40.03 77.1211 39.3933 76.7227L15.0853 62.1817C14.2591 61.7045 13.7533 60.8204 13.7598 59.8666C13.7617 59.3991 13.8848 58.9395 14.1172 58.5332C14.3828 58.073 14.7826 57.7038 15.2624 57.476C15.474 57.3731 15.6979 57.3002 15.9291 57.2598C16.0977 57.2286 16.2689 57.2123 16.4401 57.2123C16.8985 57.211 17.349 57.3308 17.7468 57.5586L32.4336 65.4948C32.4506 65.5762 32.4506 65.6563 32.472 65.7377C33.1035 68.0652 35.2149 69.6817 37.627 69.6843C38.3692 69.6166 39.1042 69.4851 39.8242 69.2924L53.6771 65.5853L52.9896 63.0092L39.1817 66.6999C38.5736 66.8399 37.7891 67 37.627 67.0137C36.4226 67.0157 35.3666 66.211 35.0495 65.0495C35.0065 64.8881 34.9811 64.7227 34.972 64.556C34.972 64.556 34.9616 64.2331 34.972 64.1198C35.0736 63.0046 35.8548 62.0684 36.9336 61.7683L52.3256 57.6504C53.1114 57.4401 53.9213 57.3334 54.7344 57.3334H59.8451C60.569 57.3334 61.2793 57.53 61.8998 57.9017L66.6667 60.7559V75.1198L61.7748 77.0534ZM69.3334 56H77.3334V77.3334H69.3334V56Z" fill="black"/>
<path d="M54.9922 10.6664L47.8398 3.51472C45.5944 1.25625 42.5391 -0.00937087 39.3548 -0.000256285H22.5918C21.5573 0.0010458 20.5371 0.242582 19.6107 0.70352L16.6224 2.19831C16.0234 2.49974 15.3581 2.64362 14.6882 2.61693L13.3333 2.56941V-0.000256285H0V29.3331H13.3333V25.3331H15.6003L16.4069 25.8663C18.6641 27.365 21.2923 28.2113 24 28.3103V45.3331H80V10.6664H54.9922ZM10.6667 26.6664H2.66667V2.66641H10.6667V26.6664ZM17.8828 23.6475L16.3997 22.6664H13.3333V5.23737L14.5905 5.2823C15.707 5.32201 16.8151 5.08178 17.8145 4.58373L20.8001 3.08894C21.3561 2.81094 21.9701 2.66641 22.5918 2.66641H39.3548C41.8314 2.65925 44.2083 3.64362 45.9544 5.39948L51.2214 10.6664H40.2188L36.9824 7.43073L35.0977 9.3155L44.5163 18.7348C45.5625 19.7764 45.5658 21.4691 44.5241 22.516C43.4818 23.5622 41.7891 23.5655 40.7428 22.5238L32.8763 14.6573L31.9427 15.4574C29.3652 17.6462 25.5977 17.7022 22.9557 15.5902L22.1829 14.9639L20.5026 17.0356L21.2839 17.669C22.1009 18.322 23.0182 18.8389 24 19.1996V25.6423C21.8177 25.5453 19.7025 24.8559 17.8828 23.6475ZM36.8496 22.3995L38.8613 24.4119C40.9499 26.4691 44.3027 26.4724 46.3945 24.4184C44.4375 27.449 45.2096 31.4822 48.1478 33.5753C51.0859 35.6684 55.1504 35.0805 57.375 32.2413C59.5996 29.4014 59.1979 25.3142 56.4622 22.9626C53.7272 20.6111 49.6257 20.8266 47.1523 23.4516C48.0632 22.0212 48.2259 20.2387 47.5892 18.6664H65.444C66.0176 22.0212 68.6452 24.6488 72 25.2224V30.7771C68.6452 31.3507 66.0176 33.9783 65.444 37.3331H38.556C37.9824 33.9783 35.3548 31.3507 32 30.7771V25.2224C33.9056 24.9014 35.6289 23.8982 36.8496 22.3995ZM48 27.9997C48 25.7908 49.791 23.9997 52 23.9997C54.209 23.9997 56 25.7908 56 27.9997C56 30.2087 54.209 31.9997 52 31.9997C49.791 31.9997 48 30.2087 48 27.9997ZM77.3333 42.6664H26.6667V19.7582C28.7806 19.9171 30.888 19.378 32.6667 18.225L34.9414 20.4997C33.9408 21.8591 32.3548 22.6632 30.6667 22.6664H29.3333V33.3331H30.6667C33.612 33.3331 36 35.7211 36 38.6664V39.9997H68V38.6664C68 35.7211 70.388 33.3331 73.3333 33.3331H74.6667V22.6664H73.3333C70.388 22.6664 68 20.2784 68 17.3331V15.9997H45.5521L42.8854 13.3331H77.3333V42.6664Z" fill="#C5281C"/>
</g>
<defs>
<clipPath id="clip0_16_32">
<rect width="80" height="80" fill="white"/>
</clipPath>
</defs>
</svg>
