<svg width="82" height="43" viewBox="0 0 82 43" fill="none" xmlns="http://www.w3.org/2000/svg">
<path opacity="0.65" d="M66.1527 8.37776H66.1644L66.1761 8.37748C70.6166 8.27337 74.5077 9.91908 77.1688 12.3324C79.8446 14.759 81.1948 17.8724 80.7907 20.7077L80.7905 20.7091C79.9022 27.0024 74.9971 32.1786 69.1472 35.8248C63.2997 39.4695 56.783 41.4114 53.0852 41.4114H53.0305H52.9756H52.9206H52.8653H52.8099H52.7543H52.6984H52.6424H52.5863H52.5299H52.4733H52.4166H52.3597H52.3026H52.2453H52.1879H52.1303H52.0725H52.0145H51.9564H51.898H51.8396H51.7809H51.7221H51.6631H51.604H51.5447H51.4852H51.4256H51.3658H51.3058H51.2457H51.1855H51.125H51.0645H51.0037H50.9428H50.8818H50.8206H50.7593H50.6978H50.6362H50.5745H50.5125H50.4505H50.3883H50.326H50.2635H50.2009H50.1381H50.0753H50.0123H49.9491H49.8858H49.8224H49.7589H49.6952H49.6314H49.5675H49.5035H49.4393H49.375H49.3106H49.2461H49.1814H49.1166H49.0518H48.9867H48.9216H48.8564H48.7911H48.7256H48.6601H48.5944H48.5286H48.4627H48.3968H48.3307H48.2645H48.1982H48.1318H48.0653H47.9987H47.932H47.8652H47.7984H47.7314H47.6643H47.5972H47.5299H47.4626H47.3952H47.3277H47.2601H47.1924H47.1247H47.0569H46.9889H46.9209H46.8529H46.7847H46.7165H46.6482H46.5798H46.5114H46.4429H46.3743H46.3056H46.2369H46.1681H46.0993H46.0304H45.9614H45.8924H45.8233H45.7541H45.6849H45.6156H45.5463H45.4769H45.4075H45.338H45.2685H45.1989H45.1293H45.0596H44.9899H44.9201H44.8503H44.7804H44.7105H44.6406H44.5706H44.5006H44.4305H44.3604H44.2903H44.2202H44.15H44.0798H44.0095H43.9392H43.8689H43.7986H43.7283H43.6579H43.5875H43.5171H43.4466H43.3761H43.3057H43.2352H43.1647H43.0941H43.0236H42.953H42.8825H42.8119H42.7413H42.6707H42.6002H42.5296H42.459H42.3883H42.3177H42.2471H42.1765H42.1059H42.0353H41.9647H41.8941H41.8236H41.753H41.6824H41.6119H41.5413H41.4708H41.4003H41.3298H41.2593H41.1888H41.1184H41.0479H40.9775H40.9071H40.8368H40.7664H40.6961H40.6258H40.5556H40.4853H40.4151H40.345H40.2748H40.2047H40.1346H40.0646H39.9946H39.9247H39.8548H39.7849H39.715H39.6453H39.5755H39.5058H39.4362H39.3665H39.297H39.2275H39.158H39.0886H39.0193H38.95H38.8807H38.8116H38.7424H38.6734H38.6044H38.5354H38.4666H38.3978H38.329H38.2603H38.1917H38.1232H38.0547H37.9863H37.918H37.8497H37.7815H37.7134H37.6454H37.5775H37.5096H37.4418H37.3741H37.3065H37.2389H37.1715H37.1041H37.0368H36.9696H36.9025H36.8355H36.7686H36.7018H36.6351H36.5684H36.5019H36.4355H36.3691H36.3029H36.2368H36.1707H36.1048H36.039H35.9733H35.9077H35.8422H35.7768H35.7115H35.6463H35.5813H35.5164H35.4515H35.3868H35.3222H35.2578H35.1934H35.1292H35.0651H35.0011H34.9373H34.8736H34.81H34.7465H34.6832H34.62H34.5569H34.494H34.4312H34.3685H34.306H34.2436H34.1813H34.1192H34.0572H33.9954H33.9337H33.8722H33.8108H33.7496H33.6885H33.6275H33.5667H33.5061H33.4456H33.3853H33.3251H33.2651H33.2052H33.1455H33.086H33.0266H32.9674H32.9083H32.8494H32.7907H32.7322H32.6738H32.6156H32.5575H32.4996H32.4419H32.3844H32.3271H32.2699H32.2129H32.1561H32.0995H32.043H31.9868H31.9307H31.8748H31.8191H31.7635H31.7082H31.6531H31.5981H31.5434H31.4888H31.4344H31.3802H31.3263H31.2725H31.2189H31.1655H31.1123H31.0594H31.0066H30.954H30.9017H30.8495H30.7976H30.7458H30.6943H30.643H30.5919H30.541H30.4903H30.4399H30.3897H30.3396H30.2899H30.2403H30.1909H30.1418H30.0929H30.0442H29.9958H29.9476H29.8996H29.8518H29.8043H29.757H29.71H29.6631H29.6166H29.5702H29.5241H29.4783H29.4326H29.3873H29.3421H29.2972H29.2526H29.2082H29.164H29.1201H29.0765H29.0331H28.99H28.9471H28.9044H28.8621H28.8199H28.7781H28.7365H28.6952H28.6541H28.6133H28.5727H28.5325H28.4924H28.4527H28.4132H28.374H28.3351H28.2964H28.2581H28.22H28.1821H28.1446H28.1073H28.0703H28.0336H27.9972H27.9611H27.9252H27.8896H27.8543H27.8193H27.7846H27.7502H27.7161H27.6823H27.6487H27.6155H27.5826H27.5499H27.5225L31.5713 32.3695L31.8276 31.797L31.4237 31.317C26.4248 25.3759 21.2711 19.2308 17.3671 14.5707C15.4151 12.2407 13.7756 10.2821 12.6241 8.90598L12.1822 8.37776H66.1527Z" stroke="white" stroke-width="2"/>
<path d="M56.7714 0.939931H0.638672L9.4239 11.3243C17.0613 11.3243 41.6511 11.3684 51.4738 11.3243C54.9393 11.3023 56.4182 14.7197 56.4182 14.7197H12.2934L18.5844 22.1497H52.9748C52.9748 22.1497 50.7895 25.545 44.8959 25.545C39.7749 25.545 28.8044 25.545 21.2552 25.545L16.5757 35.9956C16.5757 35.9956 34.3669 35.9956 43.6819 35.9956C51.5621 35.9956 70.479 27.8821 72.3773 14.4331C73.3044 7.90697 66.1747 0.719455 56.7714 0.939931Z" fill="white"/>
</svg>
