<svg width="127" height="39" viewBox="0 0 127 39" fill="none" xmlns="http://www.w3.org/2000/svg">
<path d="M11.8261 23.0617C12.0689 22.4885 12.0468 21.9593 11.186 21.9593C10.3251 21.9593 9.79534 22.4885 9.55254 23.0617L8.71375 24.8476L3.26161 24.8696L3.87967 23.5468C5.40273 20.1735 8.97863 19.1152 12.4883 19.1152C16.616 19.1152 18.2053 20.9231 17.0354 23.5027L13.7023 30.8445C12.3117 33.865 9.24351 35.2099 5.15992 35.232C1.29708 35.232 -0.954414 34.1296 0.392065 31.1532L1.45159 28.8382H6.90373L5.77798 31.2855C5.5131 31.8587 5.55725 32.3878 6.41811 32.3878C7.27897 32.3878 7.78666 31.8587 8.05154 31.2855L9.46424 28.1988H5.77798L6.99202 25.531H10.6783L11.8261 23.0617Z" fill="white"/>
<path d="M13.3493 35.0117L20.5011 19.2918L25.9532 19.2697L22.6864 26.4352H22.7526L28.8007 19.2697H34.0763L27.7412 26.3029L27.1893 34.9676L21.6489 34.9896L22.5981 26.7879H22.5319L18.7794 34.9896L13.3493 35.0117Z" fill="white"/>
<path d="M40.5658 23.0173C40.8086 22.444 40.7866 21.9149 39.9257 21.9149C39.0648 21.9149 38.5351 22.444 38.2923 23.0173L34.5619 31.1969C34.297 31.7701 34.3411 32.2993 35.202 32.2993C36.0629 32.2993 36.5705 31.7701 36.8354 31.1969L37.9612 28.7496L43.4133 28.7276L42.3538 31.0426C41.0073 34.019 37.7404 35.1434 33.8776 35.1434C29.8161 35.1434 27.9178 33.8206 29.3084 30.8001L32.6415 23.4582C33.7893 20.8786 37.0562 19.0487 41.1839 19.0487C44.6936 19.0487 47.3203 20.0849 45.7972 23.4582L45.1792 24.7811H39.727L40.5658 23.0173Z" fill="white"/>
<path d="M49.8145 34.9233L55.686 22.0696H53.4124L47.5409 34.9233H42.0888L49.2406 19.2034L62.3963 19.1814L55.2445 34.9013L49.8145 34.9233Z" fill="white"/>
<path d="M68.4444 21.2534H68.5106C69.526 19.5999 71.2698 19.0046 73.2784 18.9825C76.2804 18.9825 76.2584 21.0109 75.3313 22.9952L71.4022 31.6819C70.4972 33.6001 68.8196 35.0993 66.0604 35.0993C64.0517 35.0993 63.0584 34.2836 63.2129 32.8505H63.1467L60.6083 38.4285H55.1561L63.9193 19.203L69.3714 19.181L68.4444 21.2534ZM64.2504 30.4473C63.9193 31.1308 64.2504 31.5276 64.8905 31.5056C65.5307 31.4835 66.1929 31.1087 66.524 30.4252L69.5922 23.6125C69.9233 22.9291 69.5922 22.5322 68.952 22.5542C68.2898 22.5542 67.6497 22.9511 67.3186 23.6346L64.2504 30.4473Z" fill="white"/>
<path d="M80.2316 27.5148L78.7968 30.7117C78.3774 31.6377 78.5099 32.211 79.2383 32.211C80.0991 32.211 80.651 31.6377 81.0704 30.6897L81.9975 28.6613L87.4496 28.6393L86.3901 30.9542C85.0436 33.9307 81.7767 35.0551 77.958 35.0551C74.4704 35.0551 71.954 33.7984 73.2784 30.8881L76.6778 23.3919C77.958 20.5698 81.0262 18.9604 85.2643 18.9604C88.7519 18.9604 91.3566 19.9966 89.8556 23.3699L87.9573 27.4928L80.2316 27.5148ZM83.6971 24.8912L84.6904 22.7526C84.9774 22.1573 84.7346 21.8266 83.9841 21.8266C83.2336 21.8266 82.7038 22.1573 82.4168 22.7526L81.4235 24.8912H83.6971Z" fill="white"/>
<path d="M99.303 22.8849C99.5458 22.3117 99.5237 21.7826 98.6628 21.7826C97.802 21.7826 97.2722 22.3117 97.0294 22.8849L93.299 31.0646C93.0341 31.6378 93.0783 32.167 93.9391 32.167C94.8 32.167 95.3077 31.6378 95.5726 31.0646L96.6983 28.6173L102.15 28.5953L101.091 30.9103C99.7444 33.8867 96.4776 35.0111 92.6147 35.0111C88.5532 35.0111 86.6549 33.6883 88.0455 30.6677L91.3786 23.3259C92.5264 20.7463 95.7933 18.9164 99.921 18.9164C103.431 18.9164 106.057 19.9526 104.534 23.3259L103.916 24.6487L98.4642 24.6708L99.303 22.8849Z" fill="white"/>
<path d="M113.982 22.8629C114.225 22.2896 114.203 21.7605 113.342 21.7605C112.481 21.7605 111.951 22.2896 111.708 22.8629L107.978 31.0425C107.713 31.6158 107.757 32.1449 108.618 32.1449C109.479 32.1449 109.987 31.6158 110.251 31.0425L111.377 28.5953H116.829L115.77 30.9103C114.423 33.8867 111.156 35.0111 107.294 35.0111C103.232 35.0111 101.334 33.6883 102.724 30.6677L106.057 23.3259C107.205 20.7463 110.472 18.9164 114.6 18.9164C118.11 18.9164 120.736 19.9526 119.213 23.3259L118.595 24.6487L113.143 24.6708L113.982 22.8629Z" fill="white"/>
<path d="M13.6635 2.70359C15.2086 2.70359 16.246 2.92407 16.7537 3.34297C17.2835 3.76188 17.3276 4.4674 16.9082 5.43749C16.6875 5.94459 16.3564 6.51782 15.8708 7.2013C14.723 8.83282 13.5972 9.95725 12.4715 10.5525C11.3457 11.1478 9.82267 11.4565 7.90229 11.4565C6.35715 11.4565 5.34177 11.236 4.81201 10.8171C4.28224 10.3982 4.21602 9.71473 4.63542 8.76668C4.81201 8.36982 5.05481 7.92887 5.38592 7.44382H4.10566L1.4127 11.3462H0L5.93775 2.79178H7.32838L4.76786 6.49578H6.04812C7.08557 5.08473 8.16717 4.09259 9.29291 3.5414C10.3966 2.96816 11.8755 2.70359 13.6635 2.70359ZM7.08557 7.06901C6.57788 7.81863 6.22471 8.36982 6.09227 8.72258C5.80531 9.38401 5.84946 9.84701 6.20263 10.1116C6.55581 10.3762 7.28423 10.5305 8.40998 10.5305C9.86682 10.5305 11.0367 10.288 11.8755 9.78087C12.7143 9.29582 13.5972 8.39187 14.5022 7.06901C14.9879 6.36349 15.319 5.8123 15.4735 5.43749C15.7604 4.77607 15.7163 4.31307 15.3852 4.04849C15.032 3.78392 14.3036 3.65164 13.1778 3.65164C11.721 3.65164 10.5511 3.89416 9.71231 4.37921C8.87352 4.84221 7.99058 5.74616 7.08557 7.06901Z" fill="white"/>
<path d="M15.9814 11.3463H14.5908L19.7339 3.93833C20.043 3.49738 20.352 3.18872 20.661 3.03438C20.97 2.88005 21.4115 2.79186 21.9413 2.79186H26.5988C28.1218 2.79186 28.6075 3.38714 28.0998 4.55566C27.9452 4.88638 27.7687 5.21709 27.5479 5.52576C26.9078 6.42971 26.2677 7.09114 25.6275 7.48799C24.9874 7.88485 24.1265 8.08328 23.067 8.08328H18.255L15.9814 11.3463ZM18.8951 7.15728H23.2215C23.9279 7.15728 24.4797 7.02499 24.8991 6.73837C25.3185 6.4738 25.7379 6.01081 26.1794 5.39347C26.4001 5.08481 26.5546 4.82024 26.6429 4.62181C26.7754 4.31314 26.7754 4.09266 26.6208 3.93833C26.4663 3.784 26.1352 3.71786 25.6275 3.71786H21.9413C21.6543 3.71786 21.4557 3.76195 21.3232 3.85014C21.1908 3.93833 21.0363 4.07062 20.8817 4.29109L18.8951 7.15728Z" fill="white"/>
<path d="M34.3464 11.3462H32.9558L37.9002 4.29102C37.9444 4.22488 37.9885 4.18078 37.9885 4.13669C38.0106 4.07054 38.0106 4.02645 37.9444 4.02645C37.834 4.02645 37.6133 4.15873 37.2601 4.40126L28.0555 10.7289C27.6802 10.9714 27.3712 11.1699 27.0842 11.2801C26.8194 11.3903 26.4883 11.4565 26.113 11.4565C25.495 11.4565 25.2963 11.1699 25.5391 10.6187C25.6053 10.4864 25.6715 10.3541 25.7378 10.2439L30.8809 2.81383H32.2715L27.4595 9.75882C27.3491 9.91315 27.305 10.0013 27.2829 10.0234C27.2608 10.0895 27.2608 10.1336 27.3491 10.1336C27.4374 10.1336 27.5919 10.0454 27.8347 9.86906L36.9731 3.5855C37.4588 3.25478 37.8561 3.01226 38.143 2.90202C38.4521 2.76974 38.7611 2.70359 39.0922 2.70359C39.7323 2.70359 39.9089 3.01226 39.644 3.62959C39.5778 3.80597 39.4895 3.93826 39.4233 4.02645L34.3464 11.3462Z" fill="white"/>
<path d="M46.7737 11.3459H37.1276C36.8848 11.3459 36.6861 11.39 36.5537 11.4782C36.4212 11.5663 36.2667 11.7207 36.1122 11.9191L35.3617 12.9994H33.9932L34.9423 11.6104C35.2513 11.1474 35.5825 10.8388 35.8915 10.6624C36.2005 10.486 36.6199 10.3978 37.1497 10.3978H37.4808L45.9349 3.56306C46.6633 2.96778 47.3255 2.68116 47.9215 2.68116C48.2526 2.68116 48.4954 2.7473 48.6278 2.87959C48.7603 3.01187 48.7824 3.23235 48.7382 3.56306L47.6787 10.3978H48.0098C48.7824 10.3978 49.0472 10.6624 48.8044 11.2136C48.7382 11.3459 48.672 11.4782 48.5837 11.6104L47.6345 12.9994H46.2439L46.9944 11.9191C47.0606 11.8089 47.1269 11.7207 47.1489 11.6545C47.2372 11.4561 47.1268 11.3459 46.7737 11.3459ZM46.7516 4.11425L39.0038 10.4199H46.3543L47.3697 4.11425C47.3917 3.89378 47.3697 3.80559 47.2593 3.80559C47.171 3.80559 47.0165 3.89378 46.7516 4.11425Z" fill="white"/>
<path d="M58.7375 11.3459H57.3469L62.2913 4.29063C62.3355 4.22449 62.3796 4.1804 62.3796 4.1363C62.4017 4.07016 62.4017 4.02606 62.3355 4.02606C62.2251 4.02606 62.0044 4.15835 61.6512 4.40087L52.4466 10.7285C52.0713 10.9711 51.7623 11.1695 51.4754 11.2797C51.2105 11.39 50.8794 11.4561 50.5041 11.4561C49.8861 11.4561 49.6874 11.1695 49.9302 10.6183C49.9964 10.486 50.0627 10.3537 50.1289 10.2435L55.272 2.81345H56.6626L51.8727 9.73639C51.7623 9.89072 51.7182 9.97891 51.6961 10.001C51.674 10.0671 51.674 10.1112 51.7623 10.1112C51.8506 10.1112 52.0051 10.023 52.2479 9.84663L61.3863 3.56306C61.8719 3.23235 62.2692 2.98982 62.5562 2.87959C62.8652 2.7473 63.1743 2.68116 63.5054 2.68116C64.1455 2.68116 64.3221 2.98983 64.0572 3.60716C63.991 3.78354 63.9027 3.91582 63.8365 4.00402L58.7375 11.3459Z" fill="white"/>
<path d="M68.8912 11.3459H67.5006L70.0832 7.59785H65.4257C64.8297 7.59785 64.4103 7.46556 64.1896 7.17895C63.9689 6.89233 63.9468 6.53957 64.1455 6.09861C64.1896 5.98838 64.2558 5.85609 64.3441 5.72381L66.3749 2.76942H67.7655L65.8893 5.48128C65.7789 5.63561 65.6906 5.78995 65.6464 5.92223C65.4257 6.40728 65.7127 6.6498 66.4632 6.6498H70.7454L73.4384 2.76942H74.829L68.8912 11.3459Z" fill="white"/>
<path d="M78.8244 11.3463H72.2907C71.9155 11.3463 71.6506 11.2581 71.5181 11.1038C71.3857 10.9495 71.3636 10.729 71.474 10.4644C71.5181 10.3542 71.5844 10.2439 71.6727 10.1337L75.9328 4.00448C76.2418 3.54148 76.5729 3.23281 76.9261 3.05643C77.2572 2.88005 77.6987 2.79186 78.2505 2.79186H84.718L84.0779 3.71786H78.2285C77.9415 3.71786 77.7428 3.76195 77.5883 3.85014C77.4338 3.93833 77.3014 4.09266 77.1469 4.31314L75.6017 6.5179H82.003L81.3629 7.4439H74.9616L73.3061 9.84708C73.2399 9.95732 73.1736 10.0455 73.1295 10.1337C73.0853 10.2439 73.0853 10.3321 73.1516 10.3762C73.2178 10.4203 73.3502 10.4424 73.571 10.4424H79.4866L78.8244 11.3463Z" fill="white"/>
<path d="M88.6468 11.3463H84.5191C82.1131 11.3463 81.3185 10.3983 82.1352 8.50218C82.3559 7.99509 82.6649 7.46594 83.0402 6.91475C83.4817 6.27538 83.9231 5.72419 84.3646 5.26119C84.8061 4.79819 85.3137 4.35724 85.9097 3.98243C86.4836 3.58557 87.1679 3.29895 87.8963 3.10052C88.6468 2.9021 89.4635 2.79186 90.3686 2.79186H94.408L93.7679 3.71786H90.192C88.9117 3.71786 87.8301 3.98243 86.9472 4.48952C86.0863 4.99662 85.2254 5.85647 84.4087 7.04704C84.0114 7.59823 83.7245 8.10532 83.5479 8.52423C83.2609 9.18566 83.283 9.64865 83.5699 9.95732C83.8569 10.266 84.497 10.4203 85.4683 10.4203H89.287L88.6468 11.3463Z" fill="white"/>
<path d="M90.0156 11.3463L95.9534 2.79186H97.344L91.4063 11.3463H90.0156ZM99.4189 11.3463H97.5868L94.9821 8.06123C94.7835 7.8187 94.7393 7.53209 94.8718 7.24547C95.0704 6.78247 95.5781 6.34152 96.3507 5.96671L102.973 2.79186H104.783L97.3882 6.36357C97.3661 6.36357 97.2999 6.40766 97.1674 6.4738C97.035 6.53995 96.9467 6.58404 96.8805 6.60609C96.8142 6.62814 96.748 6.69428 96.6597 6.73837C96.5714 6.80452 96.4831 6.84861 96.439 6.91475C96.3948 6.9809 96.3507 7.02499 96.3286 7.09114C96.2624 7.26752 96.3286 7.48799 96.5494 7.75256L99.4189 11.3463Z" fill="white"/>
<path d="M109.55 11.3462H108.16L113.104 4.29102C113.148 4.22488 113.193 4.18078 113.193 4.13669C113.215 4.07054 113.215 4.02645 113.148 4.02645C113.038 4.02645 112.817 4.15873 112.464 4.40126L103.26 10.7289C102.884 10.9714 102.575 11.1699 102.288 11.2801C102.023 11.3903 101.692 11.4565 101.317 11.4565C100.699 11.4565 100.5 11.1699 100.743 10.6187C100.809 10.4864 100.876 10.3541 100.942 10.2439L106.085 2.81383H107.476L102.664 9.75882C102.553 9.91315 102.509 10.0013 102.487 10.0234C102.465 10.0895 102.465 10.1336 102.553 10.1336C102.642 10.1336 102.796 10.0454 103.039 9.86906L112.177 3.5855C112.663 3.25478 113.06 3.01226 113.347 2.90202C113.656 2.76974 113.965 2.70359 114.296 2.70359C114.936 2.70359 115.113 3.01226 114.848 3.62959C114.782 3.80597 114.694 3.93826 114.627 4.02645L109.55 11.3462Z" fill="white"/>
<path d="M120.874 11.3463H119.483L124.428 4.29109C124.472 4.22495 124.516 4.18086 124.516 4.13676C124.538 4.07062 124.538 4.02652 124.472 4.02652C124.362 4.02652 124.141 4.15881 123.788 4.40133L114.583 10.729C114.208 10.9715 113.899 11.1699 113.612 11.2802C113.347 11.3904 113.016 11.4566 112.641 11.4566C112.023 11.4566 111.824 11.1699 112.067 10.6187C112.133 10.4865 112.199 10.3542 112.265 10.2439L117.431 2.79186H118.821L114.009 9.73684C113.899 9.89118 113.855 9.97937 113.833 10.0014C113.811 10.0676 113.811 10.1117 113.899 10.1117C113.987 10.1117 114.142 10.0235 114.385 9.84708L123.523 3.56352C124.009 3.23281 124.406 2.99028 124.693 2.88005C125.002 2.74776 125.311 2.68162 125.642 2.68162C126.282 2.68162 126.459 2.99028 126.194 3.60762C126.128 3.784 126.039 3.91628 125.973 4.00447L120.874 11.3463ZM122.508 1.68948C123.324 1.68948 124.009 1.44696 124.56 0.939861H125.73C125.223 1.49105 124.693 1.8879 124.141 2.10838C123.589 2.32886 122.927 2.43909 122.154 2.43909C120.543 2.43909 119.969 1.932 120.389 0.939861H121.558C121.338 1.44696 121.669 1.68948 122.508 1.68948Z" fill="white"/>
</svg>
